<svg xmlns="http://www.w3.org/2000/svg" width="163.839" height="163.839" fill-rule="evenodd" clip-rule="evenodd" image-rendering="optimizeQuality" shape-rendering="geometricPrecision" text-rendering="geometricPrecision" viewBox="0 0 1707 1707" id="computer-keys">
  <defs>
    <linearGradient id="a" x1=".146" x2="1706.52" y1="853.335" y2="853.335" gradientUnits="userSpaceOnUse">
      <stop offset="0" stop-color="#f071ab"></stop>
      <stop offset="1" stop-color="#22abe2"></stop>
    </linearGradient>
  </defs>
  <g>
    <path fill="url(#a)" d="M456 1186l-37 0c-11,0 -20,-9 -20,-20 0,-11 9,-20 20,-20l37 0c11,0 20,9 20,20 0,11 -9,20 -20,20zm99 220l0 -129 -460 0c-52,0 -95,-43 -95,-95l0 -108 0 0 0 -1 0 -885c0,-53 43,-95 95,-95l1517 0c52,0 95,42 95,95l0 885 0 1 0 0 0 108c0,52 -43,95 -95,95l-460 0 0 129 65 0c58,0 104,46 104,104l0 84c0,11 -9,20 -20,20l-896 0c-11,0 -20,-9 -20,-20l0 -84c0,-58 47,-104 104,-104l66 0zm40 0l517 0 0 -128 -517 0 0 128zm-170 168l856 0 0 -64c0,-36 -28,-64 -64,-64l-85 0 -557 0 -86 0c-35,0 -64,28 -64,64l0 64zm1242 -480l-1627 0 0 88c0,30 25,55 55,55l1517 0c30,0 55,-25 55,-55l0 -88zm-1627 -40l1627 0 0 -866c0,-30 -25,-55 -55,-55l-1517 0c-30,0 -55,25 -55,55l0 866zm547 -134c-173,0 -318,-137 -326,-312 -8,-180 132,-333 312,-341 132,-6 255,70 311,189l467 -21c4,0 8,1 12,3l140 92c5,3 8,9 9,15 0,7 -3,13 -7,17l-138 117c-4,4 -10,5 -16,5 -5,-1 -10,-4 -14,-9l-42 -65 -35 68c-3,6 -10,11 -17,11 -7,0 -14,-4 -18,-10l-35 -58 -30 61c-3,7 -9,11 -17,11l-248 11c-45,124 -161,210 -293,216 -5,0 -10,0 -15,0zm286 -424c-9,1 -17,-4 -21,-12 -45,-111 -157,-182 -277,-177 -158,7 -281,141 -274,299 7,158 141,280 299,274 120,-6 225,-86 261,-201 3,-9 11,-14 19,-14l250 -11 40 -84c3,-6 9,-11 17,-11 7,0 14,3 18,10l36 59 34 -66c3,-7 9,-11 16,-11 7,0 14,3 18,9l49 74 100 -85 -112 -74 -473 21zm-293 265c-87,0 -161,-68 -167,-155 -7,-92 62,-172 154,-179 5,0 9,-1 13,-1 87,0 160,68 167,155 7,92 -62,173 -155,180 -4,0 -8,0 -12,0zm0 -295c-3,0 -6,1 -10,1 -70,5 -122,66 -117,136 5,67 61,118 127,118 3,0 6,0 9,0 71,-5 123,-67 118,-137 -5,-66 -61,-118 -127,-118zm-351 720l-38 0c-11,0 -20,-9 -20,-20 0,-11 9,-20 20,-20l38 0c11,0 20,9 20,20 0,11 -9,20 -20,20zm114 0l-38 0c-11,0 -20,-9 -20,-20 0,-11 9,-20 20,-20l38 0c11,0 20,9 20,20 0,11 -9,20 -20,20z"></path>
  </g>
</svg>
