<svg id="SvgjsSvg1001" width="288" height="288" xmlns="http://www.w3.org/2000/svg" version="1.1" xmlns:xlink="http://www.w3.org/1999/xlink" xmlns:svgjs="http://svgjs.com/svgjs" viewBox="0 0 64 64">
  <defs id="SvgjsDefs1002">
    <linearGradient id="a" x1="11.684" x2="52.316" y1="33" y2="33" gradientUnits="userSpaceOnUse">
      <stop offset="0" stop-color="#00aaff" class="stopColor00c0ff svgShape"></stop>
      <stop offset="1" stop-color="#55c6ff" class="stopColor5558ff svgShape"></stop>
    </linearGradient>
  </defs>
  <g id="SvgjsG1008" data-name="Flat Gradient Flaticon" transform="scale(4.5)"> <!-- 288 / 64 = 4.5 -->
    <path fill="url(#a)" d="M48.02223,6.77329H44.37184c-.01974.90545.01423,2.749,0,3.64a2.60812,2.60812,0,1,1-5.21622,0c.00554-.88469-.004-2.74633,0-3.64l-4.55262,0c-.00416.90545.003,2.749,0,3.64a2.60816,2.60816,0,1,1-5.21631,0c-.002-.88469.00145-2.74633,0-3.64l-4.55254,0c.01143.90545-.00823,2.749,0,3.64a2.60818,2.60818,0,1,1-5.21635,0c-.00957-.88469.00689-2.74633,0-3.64l-3.64,0a4.302,4.302,0,0,0-4.29335,4.29335v45.64A4.302,4.302,0,0,0,15.97777,61H48.02223a4.302,4.302,0,0,0,4.29335-4.29335v-45.64A4.302,4.302,0,0,0,48.02223,6.77329ZM20.52,31.25779A2.91265,2.91265,0,0,1,23.44445,28.354a22.9873,22.9873,0,0,1-.07266-2.75853,8.54193,8.54193,0,0,1,8.53485-8.53475c5.60732.07187,9.08147,4.80832,8.53471,10.20442A7.6613,7.6613,0,0,1,40.3689,28.354h.20742A2.91227,2.91227,0,0,1,43.48,31.25779V41.74221a5.12959,5.12959,0,0,1-5.13335,5.123H25.65334a5.12959,5.12959,0,0,1-5.13335-5.123ZM21.69185,10.4133V5.5289a.53412.53412,0,0,1,1.06818,0v4.8844a.53412.53412,0,1,1-1.06818,0Zm9.76887,0V5.5289a.53412.53412,0,0,1,1.06818,0v4.8844a.53412.53412,0,1,1-1.06818,0Zm9.76893,0V5.5289a.53408.53408,0,0,1,1.06812,0v4.8844a.53409.53409,0,1,1-1.06812,0ZM25.65334,44.79111H38.34666a3.05607,3.05607,0,0,0,3.05927-3.0489V31.25779a.83209.83209,0,0,0-.82961-.82968H23.42368a.83209.83209,0,0,0-.82961.82968V41.74221A3.05607,3.05607,0,0,0,25.65334,44.79111ZM32,32.59554a3.11941,3.11941,0,0,1,1.03692,6.04595L33.037,41.597a1.03716,1.03716,0,0,1-2.07408,0V38.64148A3.11949,3.11949,0,0,1,32,32.59554Zm-.00006,2.07408A1.03724,1.03724,0,0,1,32,36.74369,1.03724,1.03724,0,0,1,31.99994,34.66962ZM25.54966,28.354a5.38519,5.38519,0,0,1-.10374-1.08888V25.59554a6.46077,6.46077,0,0,1,12.92154,0,16.65695,16.65695,0,0,1-.10378,2.7585Z"></path>
  </g>
</svg>
