<?xml version="1.0" encoding="UTF-8"?>
<svg id="Calque_2" data-name="Calque 2" xmlns="http://www.w3.org/2000/svg" xmlns:xlink="http://www.w3.org/1999/xlink" viewBox="0 0 511.21 513.68">
  <defs>
    <linearGradient id="Nouvelle_nuance_de_dégradé_2" data-name="Nouvelle nuance de dégradé 2" x1="236.18" y1="29.44" x2="336.74" y2="203.62" gradientUnits="userSpaceOnUse">
      <stop offset="0" stop-color="#6590ff"/>
      <stop offset=".1" stop-color="#6e95fa"/>
      <stop offset=".27" stop-color="#86a3ef"/>
      <stop offset=".48" stop-color="#aebbdc"/>
      <stop offset=".62" stop-color="#cecece"/>
      <stop offset="1" stop-color="#cecece" stop-opacity="0"/>
    </linearGradient>
    <linearGradient id="Nouvelle_nuance_de_dégradé_2-2" data-name="Nouvelle nuance de dégradé 2" x1="414.6" y1="0" x2="414.6" y2="188.34" xlink:href="#Nouvelle_nuance_de_dégradé_2"/>
    <linearGradient id="Nouvelle_nuance_de_dégradé_2-3" data-name="Nouvelle nuance de dégradé 2" x1="416.25" y1="513.68" x2="416.25" y2="325.34" xlink:href="#Nouvelle_nuance_de_dégradé_2"/>
    <linearGradient id="Nouvelle_nuance_de_dégradé_2-4" data-name="Nouvelle nuance de dégradé 2" x1="236.55" y1="484.28" x2="337.11" y2="310.1" xlink:href="#Nouvelle_nuance_de_dégradé_2"/>
  </defs>
  <g id="Calque_3_-_copie" data-name="Calque 3 - copie">
    <g>
      <path fill="#cecece" stroke-width="0px" d="M122.12,314.71c-31.57,0-57.26-25.69-57.26-57.26s25.69-57.26,57.26-57.26,57.26,25.69,57.26,57.26-25.69,57.26-57.26,57.26ZM122.12,212.19c-24.96,0-45.26,20.3-45.26,45.26s20.3,45.26,45.26,45.26,45.26-20.3,45.26-45.26-20.3-45.26-45.26-45.26Z"/>
      <path fill="#6590ff" stroke-width="0px" d="M122.46,379.28C54.94,379.28,0,324.34,0,256.82s54.94-122.46,122.46-122.46,122.46,54.94,122.46,122.46-54.94,122.46-122.46,122.46ZM122.46,146.36c-60.91,0-110.46,49.55-110.46,110.46s49.55,110.46,110.46,110.46,110.46-49.55,110.46-110.46-49.55-110.46-110.46-110.46Z"/>
      <path fill="url(#Nouvelle_nuance_de_dégradé_2)" stroke-width="0px" d="M340.71,69.48c-4.1-1.91-10.49-2.78-14.69-2.78h-45.15c-7.9-17.18-25.27-29.14-45.39-29.14-27.54,0-49.95,22.41-49.95,49.95s22.41,49.94,49.95,49.94c19.59,0,36.58-11.34,44.76-27.79h43.63c.53,0,.95.43.95.95v71.77c0,3.32,2.69,6,6,6s6-2.68,6-6v-71.77c0-7.14-5.81-12.95-12.95-12.95h-39.49c.68-3.28,1.04-6.67,1.04-10.15,0-3.01-.27-5.95-.78-8.81h41.38c3.23,0,7.72.77,9.62,1.66,7.27,3.39,19.52,11.54,19.88,27.98v74.04c0,3.32,2.69,6,6,6s6-2.68,6-6v-74.23c-.34-16.78-10.11-30.88-26.81-38.67ZM235.48,125.45c-20.93,0-37.95-17.02-37.95-37.94s17.02-37.95,37.95-37.95,37.94,17.02,37.94,37.95-17.02,37.94-37.94,37.94Z"/>
      <path fill="url(#Nouvelle_nuance_de_dégradé_2-2)" stroke-width="0px" d="M414.6,0c-27.95,0-50.69,22.74-50.69,50.69,0,20.35,12.06,37.94,29.41,46v85.65c0,3.32,2.69,6,6,6s6-2.68,6-6v-81.82c3.01.56,6.11.85,9.28.85,3.77,0,7.44-.41,10.97-1.2v82.17c0,3.32,2.69,6,6,6s6-2.68,6-6v-86.47c16.44-8.39,27.72-25.49,27.72-45.18,0-27.95-22.74-50.69-50.69-50.69ZM429.23,86.5c-4.51,1.85-9.45,2.87-14.63,2.87-21.33,0-38.69-17.35-38.69-38.68s17.36-38.69,38.69-38.69,38.69,17.35,38.69,38.69c0,16.16-9.96,30.03-24.06,35.81Z"/>
      <path fill="url(#Nouvelle_nuance_de_dégradé_2-3)" stroke-width="0px" d="M416.25,513.68c27.95,0,50.69-22.74,50.69-50.69,0-20.35-12.06-37.94-29.41-46v-85.65c0-3.32-2.69-6-6-6s-6,2.68-6,6v81.82c-3.01-.56-6.11-.85-9.28-.85-3.77,0-7.44.41-10.97,1.2v-82.17c0-3.32-2.69-6-6-6s-6,2.68-6,6v86.47c-16.44,8.39-27.72,25.49-27.72,45.18,0,27.95,22.74,50.69,50.69,50.69ZM401.62,427.18c4.51-1.85,9.45-2.87,14.63-2.87,21.33,0,38.69,17.35,38.69,38.68s-17.36,38.69-38.69,38.69-38.69-17.35-38.69-38.69c0-16.16,9.96-30.03,24.06-35.81Z"/>
      <path fill="url(#Nouvelle_nuance_de_dégradé_2-4)" stroke-width="0px" d="M367.88,405.57v-74.23c0-3.32-2.68-6-6-6s-6,2.68-6,6v74.04c-.36,16.44-12.61,24.59-19.88,27.98-1.9.89-6.39,1.66-9.62,1.66h-41.38c.51-2.86.78-5.8.78-8.81,0-3.48-.36-6.87-1.04-10.15h39.49c7.14,0,12.95-5.81,12.95-12.95v-71.77c0-3.32-2.69-6-6-6s-6,2.68-6,6v71.77c0,.52-.42.95-.95.95h-43.63c-8.18-16.45-25.17-27.79-44.76-27.79-27.54,0-49.95,22.4-49.95,49.94,0,27.54,22.41,49.95,49.95,49.95,20.12,0,37.49-11.96,45.39-29.14h45.15c4.2,0,10.59-.87,14.69-2.78,16.7-7.79,26.47-21.89,26.81-38.67ZM273.78,426.21c0,20.93-17.02,37.95-37.94,37.95-20.93,0-37.95-17.02-37.95-37.95s17.02-37.94,37.95-37.94c20.92,0,37.94,17.02,37.94,37.94Z"/>
      <g>
        <path fill="#cecece" stroke-width="0px" d="M273.21,206.31c-.01.79-.36,2.12-2.48,2.12l-12.73-.03-.34.1c-1.32.52-1.89,1.78-1.73,3.83h6.4c1.42.1,2.2.93,2.25,2.35.01.71-.18,1.26-.56,1.64s-.93.58-1.65.59h-6.3v6.59c-.05,1.27-.81,1.95-2.13,1.95h-.07c-1.36-.02-2.16-.72-2.26-1.97l-.03-14.16c.05-.36.11-.63.19-.86.07-.22.17-.45.27-.67h.01c1.05-2.02,2.77-3.34,5.11-3.93h.12s13.83,0,13.83,0c1.41.27,2.12,1.14,2.1,2.46Z"/>
        <path fill="#cecece" stroke-width="0px" d="M297.01,207.27l-.16-.08c-.79-1.22-1.78-2.13-2.96-2.73l-.11-.05h-.19c-.19-.08-.37-.16-.54-.22-.2-.07-.39-.13-.56-.18h-10.77s-.14.01-.14.01c-2.19.65-3.81,1.94-4.79,3.85l-.05.14c-.03.18-.08.34-.16.53l-.2.61-.06.43v7.58c-.38,4.18,1.29,6.94,5.04,8.23l.48.06h8.79c.11,0,.21.01,.32.01,3.36-.01,5.63-1.67,6.73-4.96l.09-.99v-10.05l-.76-2.19ZM293.28,218.55c-.05,1.33-.71,2.04-2.01,2.24-6.68.04-8.71.03-9.13,0-.42-.3-.76-.59-1-.86-.08-.16-.15-.31-.21-.46-.05-.14-.09-.26-.13-.39v-8.68c.08-.3.16-.56.24-.75.46-.57.99-.97,1.59-1.17h8.73l.13.04c.27.06.51.15.73.26l.23.28.09.09c.3.22.5.45.59.62.1.35.15.64.15.87v7.9Z"/>
        <path fill="#cecece" stroke-width="0px" d="M321.74,222.37l-.09-.1c-.05-.07-.06-.11-.07-.12l-.03-.19-.15-.12c-.15-.12-.19-.18-.19-.18l-.09-.27-.13-.03-2.5-2.45-.49-.49c2.98-1.69,4.25-4.54,3.76-8.49-.38-2.7-1.89-4.62-4.55-5.73l-.42-.12-.24-.02c-.5-.15-.96-.19-1.31-.12h-12.06l-.18.03c-1.11.42-1.94,1.11-2.45,2.06l-.06.12v.09l-.12.12v.32l-.05.12v17.09l.46.93.12.08c.61.38,1.18.58,1.71.58.16,0,.32-.02,.47-.05.62-.15,1.16-.58,1.59-1.28l.06-.11.07-.92v-3.99h7.39l5.34,5.33c.19.22.38.4.57.55.19.16.39.29.58.39l.11.05h1.56l.12-.08c1.06-.68,1.5-1.67,1.29-2.87l-.02-.13ZM317.29,212.1c-.19,1.13-.69,1.92-1.54,2.4l-.29.08h-10.66v-6.15h10.46c1.71.67,2.36,1.84,2.03,3.67Z"/>
        <path fill="#cecece" stroke-width="0px" d="M346.62,206.15c0,1.16-.6,1.92-1.71,2.12h-6.56v15.47c-.14.77-.63,1.59-2.23,1.65-1.24,0-2.06-.58-2.3-1.62l-.02-.12v-15.43l-7.01-.02c-1-.25-1.57-.93-1.65-1.98-.05-.72.18-1.72,1.56-2.38l.21-.05,18.12.02c1.09.35,1.64,1.16,1.59,2.34Z"/>
        <path fill="#cecece" stroke-width="0px" d="M366.53,222.02l-4.2-16.2-.38-.62-.36-.32c-.18-.13-.32-.24-.41-.36l-.07-.09-.1-.06c-.15-.07-.28-.14-.39-.19-.08-.05-.16-.1-.24-.16l-.13-.11h-.27c-.22-.07-.47-.13-.79-.18h-6.44l-.19.04c-1.09.42-1.94,1.04-2.52,1.82l-.06.11c-.08.18-.13.3-.2.46l-4.56,16c-.02.11-.04.21-.05.31-.01.1-.02.19-.02.26v1.1l.08.12c.8,1.23,1.95,1.6,3.32,1.08l.18-.07.1-.19c.23-.19.42-.38.55-.58l1.25-4.35.26-.92h10.11l.25.93c.77,2.91.86,3.48.87,3.59l.18.63.08.08c.07.07.13.17.19.31l.05.13.12.09c.57.4,1.18.6,1.84.6.18,0,.36-.01,.54-.04l.19-.07c.54-.34.95-.76,1.23-1.24l.06-.12v-1.19l-.07-.6ZM359.84,214.37h-7.68c1.07-3.93,1.57-5.55,1.8-6.15h4.36l.06.25s.13.32.45,1.69l1.01,4.21Z"/>
        <path fill="#cecece" stroke-width="0px" d="M390.6,223.25c.03,1.59-.89,2.05-1.44,2.19h-.06s-14.54.01-14.54.01c-1.1-.11-2.21-.58-3.34-1.39-1.22-.88-1.92-2.31-2.07-4.27v-14.4c.14-.58.61-1.57,2.22-1.57,1.54-.06,2.05.81,2.25,1.52l.02.13v13.56c.27,1.03.78,1.64,1.58,1.87l14.01.1c.61.24,1.34.83,1.37,2.25Z"/>
        <path fill="#cecece" stroke-width="0px" d="M397.61,205.38v18.33c-.11.69-.51,1.68-2.06,1.68h-.15c-1.47-.03-2.01-.86-2.2-1.55l-.02-.13v-18.41c.11-.58.53-1.56,2.16-1.63,1.25-.03,2.03.53,2.26,1.61v.1Z"/>
        <path fill="#cecece" stroke-width="0px" d="M405.08,210.38v8.45c0,.23.05.5.14.8.38.63.94,1.07,1.7,1.36l8.98-.04c.58-.28,1.14-.75,1.66-1.37l.52-.51.87-.65.58-.08h.54s.65.11.65.11c.52.29.95.73,1.27,1.33l.06.11v1.39l-.08.18c-1.09,1.78-2.73,3.1-4.85,3.93l-.1.02-.35.06h-8.42c-.33.06-.66.08-.99.08-1.87,0-3.57-.77-5.05-2.29-.55-.6-1.02-1.39-1.4-2.35-.06-.23-.09-.3-.1-.32l-.05-.14-.06-.35v-8.52c-.31-3.74,1.46-6.27,5.25-7.53l.15-.02h10.52l.59.09c1.9.68,3.53,1.97,4.85,3.84l.09.13v1.59l-.06.11c-.53.95-1.42,1.44-2.59,1.39l-.1-.02c-.28-.07-.54-.2-.78-.4l-.24-.07-.09-.14c-.09-.11-.19-.23-.31-.35-.12-.12-.26-.25-.42-.37l-.08-.08-.33-.39c-.11-.07-.22-.16-.31-.28-.05-.07-.11-.13-.18-.2l-.35-.22-.57-.14h-8.4c-.1-.01-.18-.01-.31.03l-.55.14c-.38.23-.7.56-.96.96l-.14.14s-.03.08-.05.12c-.03.1-.07.22-.1.35l-.05.12Z"/>
        <path fill="#cecece" stroke-width="0px" d="M446.29,223.07c.03,1.76-.99,2.22-1.59,2.34h-12.57s-1.9,0-1.9,0c-3.75-.97-5.57-3.41-5.4-7.25v-8.31c.79-3.98,2.79-5.94,5.94-5.94h14.04c.51,0,.93.24,1.2.69.22.36.34.83.36,1.39.09,1.45-.66,2.09-1.3,2.37l-.2.04h-13.07l-.63.13c-.91.35-1.53.96-1.85,1.84v2.05l13.03.02c.58.17,1.27.7,1.24,2.26-.03,1.56-.76,2.08-1.37,2.25l-.13.02h-12.84l-.02,1.87c.27,1.08,1.06,1.74,2.44,2.01l.82.06h12.11c.6-.01,1.62.28,1.69,2.16Z"/>
      </g>
      <path fill="#cecece" stroke-width="0px" d="M436.82,268.27h-165.88c-3.31,0-6-2.69-6-6s2.69-6,6-6h165.88c3.31,0,6,2.69,6,6s-2.69,6-6,6Z"/>
      <path fill="#cecece" stroke-width="0px" d="M456.7,304.43h-207.19c-3.31,0-6-2.69-6-6s2.69-6,6-6h204.92l41.56-36.58-43.13-35.95c-2.54-2.12-2.89-5.91-.77-8.45,2.12-2.55,5.9-2.89,8.45-.77l48.51,40.43c1.35,1.12,2.13,2.78,2.16,4.53.02,1.75-.72,3.43-2.04,4.58l-48.52,42.7c-1.09.96-2.5,1.5-3.96,1.5Z"/>
    </g>
  </g>
</svg>
