<svg id="SvgjsSvg1015" width="288" height="288" xmlns="http://www.w3.org/2000/svg" version="1.1" xmlns:xlink="http://www.w3.org/1999/xlink" xmlns:svgjs="http://svgjs.com/svgjs" viewBox="0 0 512 512">
  <defs id="SvgjsDefs1016">
    <linearGradient id="a" x1="255.5" x2="255.5" y1="20.767" y2="491.853" gradientUnits="userSpaceOnUse">
      <stop offset="0" stop-color="#00efd1" class="stopColor00efd1 svgShape"></stop>
      <stop offset="1" stop-color="#00acea" class="stopColor00acea svgShape"></stop>
    </linearGradient>
    <linearGradient id="b" x1="212.935" x2="212.935" y1="20.767" y2="491.853" xlink:href="#a"></linearGradient>
    <linearGradient id="c" x1="212.935" x2="212.935" y1="20.767" y2="491.853" xlink:href="#a"></linearGradient>
    <linearGradient id="d" x1="381" x2="381" y1="20.767" y2="491.853" xlink:href="#a"></linearGradient>
  </defs>
  <g id="SvgjsG1017" data-name="<Group>">
    <!-- Replaced nested <svg> with <g> and applied transformations if necessary -->
    <g data-name="<Layer 1>" transform="scale(0.5625)"> <!-- 288 / 512 = 0.5625 -->
      <path fill="url(#a)" d="M457.457,38H67.543C44.912,38,26,57.55,26,81.063V143H21.5c-4.418,0-8.5,3.161-8.5,7.58v42A8.808,8.808,0,0,0,21.5,201H26v82H21.5c-4.418,0-8.5,3.161-8.5,7.58v42A8.808,8.808,0,0,0,21.5,341H26v61.1C26,425.609,44.912,445,67.543,445H93v21a8,8,0,0,0,16,0V445H413v21a8,8,0,0,0,16,0V445h28.457C480.088,445,498,425.609,498,402.1V81.063C498,57.55,480.088,38,457.457,38ZM29,159H83v26H29Zm42,42v82H42V201ZM29,325V299H83v26Zm453,77.1c0,14.691-10.734,26.9-24.543,26.9H67.543C53.734,429,42,416.787,42,402.1V341H71v32.226C71,387.188,81.559,399,95.08,399H429.92c13.521,0,24.08-11.812,24.08-25.774V109.934C454,95.971,443.441,85,429.92,85H95.08C81.559,85,71,95.971,71,109.934V143H42V81.063C42,66.373,53.734,54,67.543,54H457.457C471.266,54,482,66.373,482,81.063ZM91,283H87V201h4c4.418,0,8-4,8-8.42v-42c0-4.419-3.582-7.58-8-7.58H87V109.934c0-5.141,3.381-8.934,8.08-8.934H429.92c4.7,0,8.08,3.793,8.08,8.934V373.226c0,5.14-3.381,9.774-8.08,9.774H95.08c-4.7,0-8.08-4.634-8.08-9.774V341h4c4.418,0,8-4,8-8.42v-42C99,286.161,95.418,283,91,283Z" data-name="<Compound Path>"></path>
    </g>
    <g data-name="<Compound Path>">
      <path fill="url(#b)" d="M212.935,321.256a79.677,79.677,0,1,0-79.677-79.676A79.766,79.766,0,0,0,212.935,321.256Zm0-143.353a63.677,63.677,0,1,1-63.677,63.677A63.748,63.748,0,0,1,212.935,177.9Z" data-name="<Compound Path>"></path>
    </g>
    <g data-name="<Compound Path>">
      <path fill="url(#c)" d="M212.935,278.43a36.851,36.851,0,1,0-36.851-36.85A36.892,36.892,0,0,0,212.935,278.43Zm0-57.7a20.851,20.851,0,1,1-20.851,20.851A20.874,20.874,0,0,1,212.935,220.729Z" data-name="<Compound Path>"></path>
    </g>
    <g data-name="<Compound Path>">
      <path fill="url(#d)" d="M381,301.545c15.04,0,27-12.654,27-28.209V195.388c0-15.555-11.96-28.208-27-28.208s-27,12.653-27,28.208v77.948C354,288.891,365.96,301.545,381,301.545ZM370,195.388c0-6.732,4.782-12.208,11-12.208s11,5.476,11,12.208v77.948c0,6.732-4.782,12.209-11,12.209s-11-5.477-11-12.209Z" data-name="<Compound Path>"></path>
    </g>
  </g>
</svg>
