<svg id="SvgjsSvg1031" width="288" height="288" xmlns="http://www.w3.org/2000/svg" version="1.1" xmlns:xlink="http://www.w3.org/1999/xlink" xmlns:svgjs="http://svgjs.com/svgjs" viewBox="0 0 512 512">
  <defs id="SvgjsDefs1032">
    <linearGradient id="a" x1="233.778" x2="233.778" y1="28" y2="480.159" gradientUnits="userSpaceOnUse">
      <stop offset="0" stop-color="#00efd1" class="stopColor00efd1 svgShape"></stop>
      <stop offset="1" stop-color="#00acea" class="stopColor00acea svgShape"></stop>
    </linearGradient>
    <linearGradient id="b" x1="173.486" x2="173.486" y1="28" y2="480.159" xlink:href="#a"></linearGradient>
    <linearGradient id="c" x1="392.486" x2="392.486" y1="28" y2="480.159" xlink:href="#a"></linearGradient>
    <linearGradient id="d" x1="457.486" x2="457.486" y1="28" y2="480.159" xlink:href="#a"></linearGradient>
    <linearGradient id="e" x1="346.486" x2="346.486" y1="28" y2="480.159" xlink:href="#a"></linearGradient>
  </defs>
  <g id="SvgjsG1033" data-name="Layer 1" transform="scale(0.5625)"> <!-- 288 / 512 = 0.5625 -->
    <path fill="url(#a)" d="M396.663,169.218l20.716-61.091a14,14,0,0,0-17.755-17.754l-61.089,20.716-51.7-38.58a14,14,0,0,0-22.371,11.4l.824,64.5-52.668,37.247a14,14,0,0,0,3.928,24.8l26.155,8.13L39.125,422.165a32.888,32.888,0,0,0,0,46.457l.082.081a32.849,32.849,0,0,0,46.38-.077L289.166,265.047,297.3,291.2a13.913,13.913,0,0,0,11.179,9.673,14.286,14.286,0,0,0,2.23.176,13.9,13.9,0,0,0,11.39-5.921l37.247-52.667,64.5.825a14,14,0,0,0,11.4-22.372ZM74.272,457.312a16.846,16.846,0,0,1-23.828,0l-.063-.062a16.871,16.871,0,0,1,.058-23.771l66.909-66.908L141.181,390.4ZM152.5,379.09l-23.834-23.833L259.967,223.951l18.181,5.652,5.653,18.182Zm206-152.639a13.983,13.983,0,0,0-11.609,5.915l-35.514,50.217-18.258-58.732a14,14,0,0,0-9.213-9.215l-58.734-18.257,50.218-35.513a14,14,0,0,0,5.915-11.609l-.786-61.5,49.294,36.785a14,14,0,0,0,12.869,2.038l58.247-19.752-19.753,58.249a14,14,0,0,0,2.039,12.868L420,227.237Z"></path>
    <path fill="url(#b)" d="M153.873,119.93l9.773,2.7-2.7,9.773a8,8,0,1,0,15.424,4.255l2.7-9.773,9.773,2.7a8,8,0,1,0,4.256-15.424l-9.774-2.7,2.7-9.773A8,8,0,1,0,170.6,97.429l-2.7,9.773-9.772-2.7a8,8,0,0,0-4.256,15.424Z"></path>
    <path fill="url(#c)" d="M407.326,376.837l-5-1.38,1.38-5a8,8,0,1,0-15.424-4.255l-1.38,5-5-1.38a8,8,0,0,0-4.253,15.424l5,1.379-1.379,5a8,8,0,1,0,15.423,4.255l1.38-5,5,1.38a8,8,0,0,0,4.254-15.424Z"></path>
    <path fill="url(#d)" d="M476.623,156.022l-9.3-2.565,2.565-9.3a8,8,0,0,0-15.424-4.255l-2.566,9.3-9.3-2.565a8,8,0,1,0-4.254,15.424l9.3,2.565-2.565,9.3a8,8,0,1,0,15.424,4.255l2.565-9.3,9.3,2.565a8,8,0,0,0,4.254-15.424Z"></path>
    <path fill="url(#e)" d="M330.069,59.812l6.577,1.814L334.832,68.2a8,8,0,1,0,15.424,4.254l1.814-6.577,6.578,1.814A8,8,0,1,0,362.9,52.271l-6.577-1.814,1.815-6.578a8,8,0,0,0-15.424-4.254L340.9,46.2l-6.578-1.814a8,8,0,1,0-4.254,15.424Z"></path>
  </g>
</svg>
