<svg xmlns="http://www.w3.org/2000/svg" viewBox="0 0 24 24" id="settings">
  <defs>
    <linearGradient id="a" x1="4.701" x2="19.299" y1="4.701" y2="19.299" gradientUnits="userSpaceOnUse">
      <stop offset="0" stop-color="#6dd5fa"></stop>
      <stop offset="1" stop-color="#2980b9"></stop>
    </linearGradient>
  </defs>
  <path fill="url(#a)" d="m21.49 13.9-.33-.19a1.962 1.962 0 0 1 0-3.42l.33-.19a1.013 1.013 0 0 0 .48-.61 1 1 0 0 0-.11-.77l-2.05-3.46a.993.993 0 0 0-1.35-.36l-.36.2a2.067 2.067 0 0 1-3.05-1.79V3a1 1 0 0 0-1-1h-4.1a1 1 0 0 0-1 1v.32a2 2 0 0 1-1.01 1.74 2.107 2.107 0 0 1-2.09.01l-.31-.17a.993.993 0 0 0-1.35.36L2.14 8.72a1 1 0 0 0-.11.77 1.013 1.013 0 0 0 .48.61l.33.19a1.962 1.962 0 0 1 0 3.42l-.33.19a1.013 1.013 0 0 0-.48.61 1 1 0 0 0 .11.77l2.05 3.46a.99.99 0 0 0 1.35.36l.34-.19a2.064 2.064 0 0 1 3.07 1.81V21a1 1 0 0 0 1 1h4.1a1 1 0 0 0 1-1v-.29a2.06 2.06 0 0 1 3.08-1.79l.33.18a.99.99 0 0 0 1.35-.36l2.05-3.46a1 1 0 0 0 .11-.77 1.013 1.013 0 0 0-.48-.61ZM12 16a4 4 0 1 1 4-4 4 4 0 0 1-4 4Z"></path>
</svg>
